<mxfile host="app.diagrams.net" modified="2023-05-20T12:23:28.610Z" agent="Mozilla/5.0 (X11; Linux x86_64) AppleWebKit/537.36 (KHTML, like Gecko) Chrome/104.0.5112.114 YaBrowser/22.9.1.1110 (beta) Yowser/2.5 Safari/537.36" etag="8lK6tb64YscbXoLJkcmc" version="21.2.9" type="device">
  <diagram id="L7Ecyuw07_8SLwQlUtcT" name="Page-1">
    <mxGraphModel dx="1434" dy="780" grid="1" gridSize="10" guides="1" tooltips="1" connect="1" arrows="1" fold="1" page="1" pageScale="1" pageWidth="827" pageHeight="1169" math="0" shadow="0">
      <root>
        <mxCell id="0" />
        <mxCell id="1" parent="0" />
        <mxCell id="lEa36Cqtsujh-2_FKmsS-2" value="" style="rounded=1;html=1;labelBackgroundColor=none;horizontal=1;" parent="1" vertex="1">
          <mxGeometry x="120" y="40" width="120" height="60" as="geometry" />
        </mxCell>
        <mxCell id="lEa36Cqtsujh-2_FKmsS-35" value="значение (2 байта)" style="text;html=1;fontSize=12;" parent="1" vertex="1">
          <mxGeometry x="130" y="60" width="50" height="30" as="geometry" />
        </mxCell>
        <mxCell id="lEa36Cqtsujh-2_FKmsS-43" value="Проверочное" style="text;html=1;strokeColor=none;fillColor=none;align=center;verticalAlign=middle;whiteSpace=wrap;rounded=0;shadow=0;labelBackgroundColor=none;fontSize=12;" parent="1" vertex="1">
          <mxGeometry x="160" y="50" width="40" height="20" as="geometry" />
        </mxCell>
        <mxCell id="y9WOQqME95E-GhDoPVtn-2" value="Время компиляции программы (4 байта)" style="rounded=1;html=1;labelBackgroundColor=none;horizontal=1;" vertex="1" parent="1">
          <mxGeometry x="240" y="40" width="240" height="60" as="geometry" />
        </mxCell>
        <mxCell id="y9WOQqME95E-GhDoPVtn-4" value="EEPROM-переменная 1" style="rounded=1;html=1;align=center;labelBackgroundColor=none;horizontal=1;" vertex="1" parent="1">
          <mxGeometry x="480" y="40" width="150" height="60" as="geometry" />
        </mxCell>
        <mxCell id="y9WOQqME95E-GhDoPVtn-5" value="EEPROM-переменная 2" style="rounded=1;html=1;align=center;labelBackgroundColor=none;horizontal=1;" vertex="1" parent="1">
          <mxGeometry x="630" y="40" width="150" height="60" as="geometry" />
        </mxCell>
      </root>
    </mxGraphModel>
  </diagram>
</mxfile>
